<svg width="24" height="24" viewBox="0 0 24 24" xmlns="http://www.w3.org/2000/svg"><path d="m6.0849 4.4859 0.60816 13.44 3.0178-2.6521a0.66877 0.66877 0 0 1 0.54964-0.15883 0.66877 0.66877 0 0 1 0.47022 0.32602h0.0021v0.0021l2.5831 4.4745 2.5183-1.4546-2.5852-4.4745a0.66877 0.66877 0 0 1-0.04598-0.57054 0.66877 0.66877 0 0 1 0.41171-0.39708l3.8057-1.2874z" fill-opacity=".3"/><path d="m6.0849 4.4859 0.60816 13.44 3.0178-2.6521c0.15018-0.1326 0.3519-0.19089 0.54964-0.15883 0.19767 0.03275 0.37024 0.1524 0.47022 0.32602h0.0021v0.0021l2.5831 4.4745 2.5183-1.4546-2.5852-4.4745c-0.10005-0.17368-0.11692-0.38308-0.04598-0.57054 0.07085-0.18733 0.22195-0.33305 0.41171-0.39708l3.8057-1.2874z" fill-opacity=".3"/><path d="m5.0232 2.647a0.66877 0.66877 0 0 0-0.33438 0.61025h0.0021l0.72937 16.121a0.66877 0.66877 0 0 0 1.1097 0.47232l3.4525-3.0324 2.51 4.347a0.66877 0.66877 0 0 0 0.91328 0.24452l3.6761-2.1212a0.66877 0.66877 0 0 0 0.24452-0.91328v-0.0021l-2.51-4.347 4.3512-1.4734a0.66877 0.66877 0 0 0 0.0021-0.0021 0.66877 0.66877 0 0 0 0.1442-1.1954l-13.595-8.6918a0.66877 0.66877 0 0 0-0.69593-0.01672zm1.0617 1.8391 11.336 7.2477-3.8057 1.2874a0.66877 0.66877 0 0 0-0.36573 0.96762l2.5852 4.4745-2.5183 1.4546-2.5831-4.4745v-0.0021h-0.0021a0.66877 0.66877 0 0 0-1.0199-0.16719l-3.0178 2.6521z"/></svg>
